HIERARCHY
ROOT root
{
	OFFSET	0	13.1	24.9
	CHANNELS 6  Xposition Yposition Zposition Xrotation Yrotation Zrotation
	JOINT spine_1
	{
		OFFSET	0	9.99999	0
		CHANNELS 3  Xrotation Yrotation Zrotation
		JOINT spine_2
		{
			OFFSET	0	112	-10
			CHANNELS 3  Xrotation Yrotation Zrotation
			JOINT spine_3
			{
				OFFSET	0	206.5	19.3
				CHANNELS 3  Xrotation Yrotation Zrotation
				JOINT spine_4
				{
					OFFSET	0	110.4	14.6
					CHANNELS 3  Xrotation Yrotation Zrotation
					JOINT neck_1
					{
						OFFSET	0	71.8	-50.3
						CHANNELS 3  Xrotation Yrotation Zrotation
						JOINT neck_2
						{
							OFFSET	0	86.2	-25.8
							CHANNELS 3  Xrotation Yrotation Zrotation
							JOINT head_ee
							{
								OFFSET	0	179.8	-8.7
								CHANNELS 3  Xrotation Yrotation Zrotation
								End Site
								{
									OFFSET	1	0	0
								}
							}
						}
					}
					JOINT left_clavicle
					{
						OFFSET	-43.2	22.4	-70.8
						CHANNELS 3  Xrotation Yrotation Zrotation
						JOINT left_shoulder
						{
							OFFSET	-93.9	-5.79999	48.7
							CHANNELS 3  Xrotation Yrotation Zrotation
							JOINT left_elbow
							{
								OFFSET	-291.4	-30.8	15.2
								CHANNELS 3  Xrotation Yrotation Zrotation
								JOINT left_lowarm_twist
								{
									OFFSET	-110.7	-3.89999	13.6
									CHANNELS 3  Xrotation Yrotation Zrotation
									JOINT left_hand
									{
										OFFSET	-110.7	-3.89999	13.6
										CHANNELS 3  Xrotation Yrotation Zrotation
										JOINT left_ee
										{
											OFFSET	-80.8	-5.10001	12.1
											CHANNELS 3  Xrotation Yrotation Zrotation
											End Site
											{
												OFFSET	1	0	0
											}
										}
									}
								}
							}
						}
					}
					JOINT right_clavicle
					{
						OFFSET	43.2	22.4	-70.8
						CHANNELS 3  Xrotation Yrotation Zrotation
						JOINT right_shoulder
						{
							OFFSET	93.9	-5.79999	48.7
							CHANNELS 3  Xrotation Yrotation Zrotation
							JOINT right_elbow
							{
								OFFSET	291.4	-30.8	15.2
								CHANNELS 3  Xrotation Yrotation Zrotation
								JOINT right_lowarm_twist
								{
									OFFSET	110.7	-3.89999	13.6
									CHANNELS 3  Xrotation Yrotation Zrotation
									JOINT right_hand
									{
										OFFSET	110.7	-3.89999	13.6
										CHANNELS 3  Xrotation Yrotation Zrotation
										JOINT right_ee
										{
											OFFSET	80.8	-5.10001	12.1
											CHANNELS 3  Xrotation Yrotation Zrotation
											End Site
											{
												OFFSET	1	0	0
											}
										}
									}
								}
							}
						}
					}
				}
			}
		}
	}
	JOINT left_hip
	{
		OFFSET	-82.8	-127.5	0.300001
		CHANNELS 3  Xrotation Yrotation Zrotation
		JOINT left_knee
		{
			OFFSET	-28.2	-396.7	2.2
			CHANNELS 3  Xrotation Yrotation Zrotation
			JOINT left_ankle
			{
				OFFSET	-11.7	-411.3	35.4
				CHANNELS 3  Xrotation Yrotation Zrotation
				JOINT left_toes
				{
					OFFSET	0	-60	-88.6
					CHANNELS 3  Xrotation Yrotation Zrotation
					JOINT left_foot_ee
					{
						OFFSET	-22.5	-16.5	-42.2
						CHANNELS 3  Xrotation Yrotation Zrotation
						End Site
						{
							OFFSET	1	0	0
						}
					}
				}
			}
		}
	}
	JOINT right_hip
	{
		OFFSET	82.8	-127.5	0.300001
		CHANNELS 3  Xrotation Yrotation Zrotation
		JOINT right_knee
		{
			OFFSET	28.2	-396.7	2.2
			CHANNELS 3  Xrotation Yrotation Zrotation
			JOINT right_ankle
			{
				OFFSET	11.7	-411.3	35.4
				CHANNELS 3  Xrotation Yrotation Zrotation
				JOINT right_toes
				{
					OFFSET	0	-60	-88.6
					CHANNELS 3  Xrotation Yrotation Zrotation
					JOINT right_foot_ee
					{
						OFFSET	22.5	-16.5	-42.2
						CHANNELS 3  Xrotation Yrotation Zrotation
						End Site
						{
							OFFSET	1	0	0
						}
					}
				}
			}
		}
	}
}
MOTION
Frames: 12
Frame Time: 0.02
1528.15 681.649 -575.193 170.703 -66.2498 173.75 -2.62792 -0.255658 -1.05303 -2.62733 -0.188137 -1.06716 -2.62298 0.0898709 -1.07988 -2.6246 -0.0817944 -1.08053 -22.8685 8.18226 6.4553 -23.0352 12.8465 9.8202 -0.0 0.0 -0.0 6.48995 16.9963 12.1646 6.23548 -18.6038 57.1452 3.80862 -62.0582 2.29162 -82.9218 -8.19119 5.23088 -3.21841 18.8321 -11.7969 -0.0 0.0 -0.0 9.96187 16.9644 -19.5117 -2.96792 -19.3911 -57.4037 0.350825 9.85907 -0.0302585 50.3027 0.990562 6.1454 -4.40426 -29.0492 12.4243 0.0 0.0 0.0 -20.1758 30.5828 -1.19396 -11.6659 0.301851 1.76179 36.8931 -9.73956 -4.7407 -27.2699 0.0 0.0 -0.0 0.0 -0.0 38.2758 32.5154 -14.2973 -13.0295 -0.313553 -1.97067 -15.1131 13.9073 -2.45485 -7.86041 0.0 0.0 0.0 0.0 0.0 
1551.05 683.71 -563.205 169.921 -66.0636 172.887 -2.74627 -0.075024 -0.853492 -2.74586 -0.0205641 -0.856536 -2.74508 0.200061 -0.833099 -2.74605 0.0659826 -0.854238 -19.0232 9.87058 5.17276 -19.2972 16.3092 8.81053 -0.0 0.0 -0.0 5.70144 16.8933 10.9077 3.63144 -18.9195 57.6017 3.61999 -60.8382 2.12592 -82.74 -8.1683 5.23447 -3.22402 19.3928 -11.5134 -0.0 0.0 -0.0 9.71773 17.2493 -18.9519 -2.05082 -20.0496 -59.5588 0.361069 10.1411 -0.0320374 53.6645 1.24346 6.4938 -4.29529 -29.0388 11.8301 0.0 0.0 0.0 -20.3569 30.1861 -1.42458 -13.9443 0.318617 2.11094 34.9 -7.90975 -4.51237 -27.2229 0.0 0.0 -0.0 0.0 -0.0 37.9264 31.556 -15.4228 -15.591 -0.322086 -2.36356 -12.4702 9.12648 -1.95899 -4.73204 0.0 0.0 0.0 0.0 0.0 
1568.45 684.294 -554.98 170.574 -65.5542 173.721 -2.85009 0.0392317 -0.844224 -2.8497 0.0928705 -0.840018 -2.85068 0.306912 -0.787442 -2.85151 0.178703 -0.826027 -18.4648 11.0563 4.26206 -18.876 19.0155 8.38001 -0.0 0.0 -0.0 5.35203 16.9579 10.3496 2.12475 -18.6626 57.9183 3.39562 -59.2545 1.9315 -82.5542 -8.14489 5.23807 -3.3515 21.4867 -11.0842 -0.0 0.0 -0.0 9.63729 17.9493 -18.7311 0.196934 -20.0409 -60.3547 0.273307 7.71046 -0.0184177 56.5496 1.47656 6.78067 -4.27375 -28.7854 11.8794 0.0 0.0 0.0 -19.7881 29.497 -2.33357 -16.1575 0.321601 2.45048 31.8459 -4.88921 -4.15562 -27.0194 0.0 0.0 -0.0 0.0 -0.0 37.2699 31.4104 -16.2518 -16.258 -0.321425 -2.46589 -10.0501 8.6223 -1.56957 -3.39946 0.0 0.0 0.0 0.0 0.0 
1591.32 685.246 -543.611 169.605 -65.4721 172.513 -2.94392 0.0941878 -0.679384 -2.94367 0.137227 -0.672014 -2.94509 0.307328 -0.613178 -2.94555 0.206633 -0.654017 -16.8755 11.653 4.96273 -17.2262 19.6066 8.959 -0.0 0.0 -0.0 4.89951 17.7604 9.6195 0.699863 -18.2768 59.5373 3.19166 -57.6744 1.75765 -82.6186 -8.153 5.23683 -3.11123 22.5315 -9.0632 -0.0 0.0 -0.0 9.54802 17.501 -18.5599 1.30123 -20.3826 -61.4825 0.308164 8.6797 -0.0233866 59.8193 1.75787 7.09124 -3.84527 -28.9307 9.43257 0.0 0.0 0.0 -19.0854 29.6292 -3.12625 -20.1954 0.293265 3.06924 29.0274 -3.48748 -3.83809 -26.6262 0.0 0.0 -0.0 0.0 -0.0 36.0712 30.6604 -16.1163 -17.8692 -0.314915 -2.71301 -9.45174 7.45751 -1.46584 -1.03948 0.0 0.0 0.0 0.0 0.0 
1613.26 690.411 -536.876 167.799 -65.835 170.293 -2.99921 -0.0456436 -0.44335 -2.9991 -0.0173398 -0.445356 -2.99883 0.0995169 -0.434442 -2.99909 0.0296567 -0.444706 -16.4673 12.0977 4.67705 -16.8521 20.5723 8.78986 -0.0 0.0 -0.0 4.67416 18.4576 9.25956 -0.932686 -17.2435 60.7729 2.81161 -54.3121 1.44246 -83.3248 -8.2419 5.22265 -2.9964 21.9516 -8.71079 -0.0 0.0 -0.0 9.46212 17.5342 -18.3672 2.65436 -20.2995 -62.3474 0.327938 9.22733 -0.026464 61.8185 1.93848 7.27311 -3.83251 -28.8669 9.40278 0.0 0.0 0.0 -18.162 29.8956 -4.43876 -24.4473 0.216402 3.71702 24.7501 1.23639 -3.31659 -27.1554 0.0 0.0 -0.0 0.0 -0.0 33.0326 30.0222 -15.0593 -19.0431 -0.305797 -2.89289 -5.86413 7.41499 -0.903773 -0.0363627 0.0 0.0 0.0 0.0 0.0 
1633.29 695.571 -525.98 167.866 -65.2746 170.142 -3.02611 0.0872112 -0.331445 -3.02605 0.108125 -0.325224 -3.02664 0.189412 -0.285631 -3.02672 0.141925 -0.31196 -16.531 12.5708 5.39357 -16.9204 21.0864 9.64466 -0.0 0.0 -0.0 4.3419 18.9035 8.74678 -2.46071 -16.8309 60.6451 2.46903 -50.7225 1.17048 -83.1846 -8.22426 5.22555 -2.98171 22.6744 -8.22424 -0.0 0.0 -0.0 9.61776 16.6982 -18.7607 4.0786 -19.9881 -63.0222 0.35224 9.89806 -0.0305014 63.6633 2.1107 7.43529 -3.74271 -28.7336 8.99489 0.0 0.0 0.0 -17.9049 29.0773 -4.54165 -27.3208 0.137324 4.15088 22.4912 2.82818 -3.04232 -26.9651 0.0 0.0 -0.0 0.0 -0.0 31.4522 30.3094 -15.4703 -19.2151 -0.304151 -2.91923 -1.82836 5.55391 -0.276957 1.21518 -0.0 -0.0 0.0 0.0 0.0 
1647.18 698.133 -517.855 167.325 -65.8584 169.087 -3.05207 0.0503836 -0.0242592 -3.05207 0.0518251 -0.021004 -3.05209 0.0555173 -0.00669593 -3.05209 0.0537631 -0.0153798 -15.8065 12.9171 5.95884 -16.1496 21.3265 10.1439 -0.0 0.0 -0.0 4.09681 19.4248 8.37416 -3.57941 -17.0557 60.6 2.22484 -47.7748 0.985428 -82.9583 -8.19578 5.23015 -2.54744 22.7656 -5.64534 -0.0 0.0 -0.0 9.92075 16.7553 -19.4314 5.42428 -20.8784 -63.2719 0.356641 10.0192 -0.0312624 65.3288 2.27061 7.5769 -3.67184 -28.3576 8.83733 0.0 0.0 0.0 -18.3643 29.0017 -3.87148 -27.2306 0.140138 4.13732 21.0779 5.8991 -2.86398 -28.611 0.0 0.0 -0.0 0.0 -0.0 29.99 29.9523 -15.0566 -19.8649 -0.297222 -3.01869 -1.29945 3.68077 -0.195104 2.36974 -0.0 -0.0 0.0 0.0 0.0 
1663.36 699.455 -514.558 166.771 -65.3763 168.195 -3.03515 0.167765 0.142925 -3.03515 0.158331 0.153311 -3.0347 0.112704 0.189395 -3.03473 0.141201 0.169219 -15.9816 12.8426 7.17319 -16.2484 20.5137 11.2651 -0.0 0.0 -0.0 4.05475 19.8337 8.31097 -4.91976 -17.0464 60.6677 2.04165 -45.3186 0.852411 -82.9994 -8.20095 5.22932 -2.33298 23.0781 -4.24325 -0.0 0.0 -0.0 9.94999 16.1692 -19.5271 8.04602 -21.2172 -63.5358 0.380071 10.6628 -0.0354684 67.0977 2.44491 7.72219 -3.55846 -28.4534 8.15844 0.0 0.0 0.0 -18.3086 27.7901 -3.40091 -29.3331 0.0690312 4.45214 18.856 10.7061 -2.59267 -29.7651 0.0 0.0 -0.0 0.0 -0.0 28.6513 29.6833 -15.0265 -20.625 -0.287685 -3.13493 0.191786 2.13082 0.0285348 3.17262 -0.0 -0.0 0.0 0.0 0.0 
1672.63 705.084 -511.344 166.662 -64.7663 167.281 -3.07039 0.14577 0.548034 -3.07023 0.110602 0.556199 -3.0689 -0.0391113 0.565739 -3.06934 0.0507259 0.564816 -17.7618 12.4714 8.18453 -18.0168 19.5433 12.4033 -0.0 0.0 -0.0 3.63244 20.286 7.68601 -5.96433 -17.3625 61.0012 1.80452 -41.7898 0.688946 -81.4312 -8.00312 5.25818 -2.09369 22.2393 -3.27793 -0.0 0.0 -0.0 9.55845 16.0583 -18.6632 10.8517 -19.7286 -64.9496 0.442912 12.3751 -0.0480187 68.884 2.6254 7.86341 -3.53882 -28.9068 7.7794 0.0 0.0 0.0 -14.6281 26.0407 -4.72966 -34.1738 -0.138294 5.1658 14.3348 16.8747 -2.03173 -31.1796 0.0 0.0 -0.0 0.0 -0.0 26.72 29.8631 -14.2585 -20.3641 -0.291132 -3.09504 1.88433 1.27543 0.278379 3.16226 -0.0 -0.0 0.0 0.0 0.0 
1684.12 712.112 -508.672 166.146 -64.3147 166.041 -3.12706 0.208801 0.761562 -3.12675 0.159919 0.773304 -3.1241 -0.049206 0.788131 -3.12496 0.0758782 0.786012 -19.0551 12.292 9.16813 -19.2805 18.9076 13.483 -0.0 0.0 -0.0 3.50369 20.6305 7.5006 -6.90973 -17.6959 61.6984 1.64658 -39.1998 0.586351 -80.3798 -7.87001 5.27447 -1.91869 21.6429 -2.54921 -0.0 0.0 -0.0 9.53417 16.0297 -18.6109 12.3475 -18.944 -65.8058 0.47689 13.2919 -0.0555659 70.1469 2.75562 7.95983 -3.52143 -29.1393 7.54602 0.0 0.0 0.0 -12.1718 24.9511 -5.50519 -37.5617 -0.318974 5.65389 10.9792 21.0948 -1.59785 -32.1769 0.0 0.0 -0.0 0.0 -0.0 25.0049 30.0264 -13.61 -20.4187 -0.290425 -3.1034 3.04062 0.565798 0.446864 3.16972 -0.0 -0.0 0.0 0.0 0.0 
1698.91 718.849 -504.837 166.33 -63.6987 166.262 -3.20886 0.122185 0.945536 -3.20837 0.0617733 0.951394 -3.20667 -0.192119 0.933842 -3.20789 -0.0422322 0.952462 -18.5068 12.6012 8.96392 -18.7516 19.5108 13.3164 -0.0 0.0 -0.0 3.71813 21.0096 7.81776 -7.02041 -17.8029 62.0115 1.21584 -31.059 0.337869 -79.8571 -7.80371 5.28164 -1.93495 23.196 -1.89364 -0.0 0.0 -0.0 9.41565 15.9851 -18.3508 13.3167 -17.8532 -66.7005 0.503134 13.9953 -0.0617566 71.9499 2.94517 8.09249 -3.21243 -28.7996 6.07394 0.0 0.0 0.0 -10.4977 23.1791 -5.53571 -40.2265 -0.481241 6.02996 5.77371 24.6915 -0.867874 -33.658 0.0 0.0 -0.0 0.0 -0.0 24.4944 29.985 -14.0812 -21.9634 -0.267146 -3.33927 3.35833 -1.53526 0.490646 1.85858 -0.0 -0.0 0.0 0.0 0.0 
1714.11 723.878 -498.878 166.355 -62.8715 166.058 -3.25169 0.262484 1.15097 -3.25097 0.188718 1.16534 -3.24602 -0.127089 1.17366 -3.24793 0.05985 1.179 -19.3635 12.0103 9.67701 -19.5333 18.1578 13.8844 -0.0 0.0 -0.0 3.43654 21.2739 7.41139 -8.40377 -17.7596 62.3395 1.09577 -28.4929 0.278226 -78.4989 -7.63111 5.29744 -1.44479 19.806 -0.618285 -0.0 0.0 -0.0 8.72604 14.523 -16.9064 12.8904 -16.2104 -69.6783 0.600462 16.5653 -0.0874132 72.0778 2.95878 8.10168 -3.31373 -28.7856 6.63042 0.0 0.0 0.0 -8.5394 24.0945 -6.28089 -43.2993 -0.689894 6.45386 8.34584 28.609 -1.27444 -35.1453 0.0 0.0 -0.0 0.0 -0.0 22.7477 29.6719 -14.0185 -22.4975 -0.257618 -3.42067 6.27992 -1.08824 0.910327 2.25512 -0.0 -0.0 0.0 0.0 0.0 
